# xmcd CD database file
#
# Track frame offsets:
#	150
#	16328
#	29890
#	47701
#	64868
#	79384
#	98164
#	114976
#	132108
#	147941
#	164432
#
# Disc length: 3573 seconds
#
# Revision: 0
# Processed by: cddbd v1.5.1PL2 Copyright (c) Steve Scherf et al.
# Submitted via: CDex 1.51
#
DISCID=970df30b
DTITLE=Rodney Atkins - If You're Going Through Hell
DYEAR=2006
DGENRE=Country
TTITLE0=These Are My People
TTITLE1=About the South
TTITLE2=Watching You
TTITLE3=Cleaning This Gun (Come on in Boy)
TTITLE4=In the Middle
TTITLE5=Man on a Tractor
TTITLE6=Wasted Whiskey
TTITLE7=Invisibly Shaken
TTITLE8=Angel's Hands
TTITLE9=If You're Going Through Hell (Before the Devil Even Knows)
TTITLE10=Interview
EXTD=YEAR: 2006
EXTT0=
EXTT1=
EXTT2=
EXTT3=
EXTT4=
EXTT5=
EXTT6=
EXTT7=
EXTT8=
EXTT9=
EXTT10=
PLAYORDER=
